<svg width="238" height="146" viewBox="0 0 238 146" fill="none" xmlns="http://www.w3.org/2000/svg">
<path d="M206.514 43.0605C190.267 43.0605 177.087 56.3605 177.087 72.7771C177.088 89.1936 190.267 102.494 206.514 102.494C222.761 102.493 235.939 89.1934 235.939 72.7771C235.939 56.3607 222.761 43.0608 206.514 43.0605Z" fill="#929292" stroke="white"/>
<path d="M190 89C181.163 80.1634 181.163 65.8366 190 57C198.837 48.1634 213.163 48.1634 222 57C230.837 65.8366 230.837 80.1634 222 89C213.163 97.8366 198.837 97.8366 190 89Z" fill="white"/>
<path d="M206.391 89.3845C197.554 89.3845 190.391 82.2225 190.391 73.3876C190.391 64.5527 197.554 57.3906 206.391 57.3906C215.227 57.3906 222.391 64.5527 222.391 73.3876C222.391 82.2225 215.227 89.3845 206.391 89.3845Z" fill="#8F27FF"/>
<path d="M181.5 74.5V71.5L8.5 71.5V74.5L181.5 74.5Z" fill="#929292" stroke="#929292"/>
<path d="M0 4L0 142C0 144.209 1.79086 146 4 146C6.20914 146 8 144.209 8 142L8 4C8 1.79086 6.20914 0 4 0C1.79086 0 0 1.79086 0 4Z" fill="#8F27FF"/>
<path d="M45.0611 57V52.5682L55.4162 42.9801C56.2969 42.1278 57.0355 41.3608 57.6321 40.679C58.2382 39.9972 58.6974 39.3295 59.0099 38.6761C59.3224 38.0133 59.4787 37.2983 59.4787 36.5312C59.4787 35.679 59.2846 34.9451 58.8963 34.3295C58.508 33.7045 57.9777 33.2263 57.3054 32.8949C56.633 32.554 55.8707 32.3835 55.0185 32.3835C54.1283 32.3835 53.3518 32.5634 52.6889 32.9233C52.026 33.2831 51.5147 33.7992 51.1548 34.4716C50.795 35.1439 50.6151 35.9441 50.6151 36.8722H44.777C44.777 34.9687 45.2079 33.3163 46.0696 31.9148C46.9313 30.5133 48.1387 29.429 49.6918 28.6619C51.2448 27.8949 53.0346 27.5114 55.0611 27.5114C57.1444 27.5114 58.9579 27.8807 60.5014 28.6193C62.0545 29.3485 63.2618 30.3617 64.1236 31.6591C64.9853 32.9564 65.4162 34.4432 65.4162 36.1193C65.4162 37.2178 65.1984 38.3021 64.7628 39.3722C64.3366 40.4422 63.5743 41.6307 62.4759 42.9375C61.3774 44.2348 59.8291 45.7926 57.831 47.6108L53.5838 51.7727V51.9716H65.7997V57H45.0611ZM81.6626 57.6392C79.2195 57.6297 77.1172 57.0284 75.3558 55.8352C73.6039 54.642 72.2545 52.9138 71.3075 50.6506C70.37 48.3873 69.906 45.6648 69.9155 42.483C69.9155 39.3106 70.3842 36.607 71.3217 34.3722C72.2687 32.1373 73.6181 30.4375 75.37 29.2727C77.1314 28.0985 79.2289 27.5114 81.6626 27.5114C84.0964 27.5114 86.1892 28.0985 87.9411 29.2727C89.7024 30.447 91.0566 32.1515 92.0036 34.3864C92.9505 36.6117 93.4193 39.3106 93.4098 42.483C93.4098 45.6742 92.9363 48.4015 91.9893 50.6648C91.0518 52.928 89.7072 54.6562 87.9553 55.8494C86.2034 57.0426 84.1058 57.6392 81.6626 57.6392ZM81.6626 52.5398C83.3293 52.5398 84.6598 51.7017 85.6541 50.0256C86.6484 48.3494 87.1409 45.8352 87.1314 42.483C87.1314 40.2765 86.9041 38.4394 86.4496 36.9716C86.0045 35.5038 85.37 34.4006 84.5462 33.6619C83.7318 32.9233 82.7706 32.554 81.6626 32.554C80.0054 32.554 78.6797 33.3826 77.6854 35.0398C76.6911 36.697 76.1892 39.178 76.1797 42.483C76.1797 44.7178 76.4022 46.5833 76.8473 48.0795C77.3018 49.5663 77.9411 50.6837 78.7649 51.4318C79.5888 52.1705 80.5547 52.5398 81.6626 52.5398ZM97.7955 57V52.5682L108.151 42.9801C109.031 42.1278 109.77 41.3608 110.366 40.679C110.973 39.9972 111.432 39.3295 111.744 38.6761C112.057 38.0133 112.213 37.2983 112.213 36.5312C112.213 35.679 112.019 34.9451 111.631 34.3295C111.242 33.7045 110.712 33.2263 110.04 32.8949C109.367 32.554 108.605 32.3835 107.753 32.3835C106.863 32.3835 106.086 32.5634 105.423 32.9233C104.76 33.2831 104.249 33.7992 103.889 34.4716C103.529 35.1439 103.349 35.9441 103.349 36.8722H97.5114C97.5114 34.9687 97.9422 33.3163 98.804 31.9148C99.6657 30.5133 100.873 29.429 102.426 28.6619C103.979 27.8949 105.769 27.5114 107.795 27.5114C109.879 27.5114 111.692 27.8807 113.236 28.6193C114.789 29.3485 115.996 30.3617 116.858 31.6591C117.72 32.9564 118.151 34.4432 118.151 36.1193C118.151 37.2178 117.933 38.3021 117.497 39.3722C117.071 40.4422 116.309 41.6307 115.21 42.9375C114.112 44.2348 112.563 45.7926 110.565 47.6108L106.318 51.7727V51.9716H118.534V57H97.7955ZM133.744 57.3977C131.622 57.3977 129.733 57.0331 128.076 56.304C126.428 55.5653 125.126 54.5521 124.17 53.2642C123.223 51.9669 122.735 50.4706 122.707 48.7756H128.9C128.938 49.4858 129.17 50.1108 129.596 50.6506C130.031 51.1809 130.609 51.5928 131.329 51.8864C132.049 52.1799 132.858 52.3267 133.758 52.3267C134.695 52.3267 135.524 52.161 136.244 51.8295C136.963 51.4981 137.527 51.0388 137.934 50.4517C138.341 49.8646 138.545 49.1875 138.545 48.4205C138.545 47.6439 138.327 46.9574 137.891 46.3608C137.465 45.7547 136.85 45.2812 136.045 44.9403C135.249 44.5994 134.302 44.429 133.204 44.429H130.491V39.9119H133.204C134.132 39.9119 134.951 39.7509 135.661 39.429C136.381 39.107 136.94 38.6619 137.337 38.0938C137.735 37.5161 137.934 36.8438 137.934 36.0767C137.934 35.3475 137.759 34.7083 137.408 34.1591C137.067 33.6004 136.585 33.1648 135.96 32.8523C135.344 32.5398 134.624 32.3835 133.8 32.3835C132.967 32.3835 132.205 32.535 131.513 32.8381C130.822 33.1316 130.268 33.553 129.852 34.1023C129.435 34.6515 129.212 35.2955 129.184 36.0341H123.289C123.317 34.358 123.796 32.8807 124.724 31.6023C125.652 30.3239 126.902 29.3248 128.474 28.6051C130.055 27.8759 131.84 27.5114 133.829 27.5114C135.836 27.5114 137.593 27.8759 139.099 28.6051C140.604 29.3343 141.774 30.3191 142.607 31.5597C143.45 32.7907 143.867 34.1733 143.857 35.7074C143.867 37.3362 143.36 38.6951 142.337 39.7841C141.324 40.8731 140.003 41.5644 138.374 41.858V42.0852C140.514 42.3598 142.143 43.1032 143.261 44.3153C144.388 45.518 144.946 47.0237 144.937 48.8324C144.946 50.4896 144.468 51.9621 143.502 53.25C142.546 54.5379 141.225 55.5511 139.539 56.2898C137.853 57.0284 135.922 57.3977 133.744 57.3977Z" fill="#8F27FF"/>
</svg>
