<svg width="45" height="42" viewBox="0 0 45 42" fill="none" xmlns="http://www.w3.org/2000/svg">
<path d="M0.465853 40.1445V36.0712H1.90886C3.35565 36.0712 4.07905 36.733 4.07905 38.0567C4.07905 38.6911 3.88116 39.1977 3.48537 39.5764C3.09148 39.9552 2.56598 40.1445 1.90886 40.1445H0.465853ZM1.38335 36.8182V39.4003H1.83785C2.23552 39.4003 2.54704 39.281 2.77239 39.0424C2.99964 38.8038 3.11326 38.479 3.11326 38.0681C3.11326 37.6799 3.00058 37.375 2.77523 37.1534C2.55177 36.93 2.23742 36.8182 1.83216 36.8182H1.38335ZM5.67261 40.1445H4.75511V36.0712H5.67261V40.1445ZM10.1834 40.1445H9.18355L8.89381 39.2384H7.44512L7.15822 40.1445H6.16403L7.6468 36.0712H8.73474L10.1834 40.1445ZM8.68361 38.5339L8.24616 37.1648C8.21397 37.0625 8.19124 36.9404 8.17799 36.7983H8.15526C8.14579 36.9176 8.12212 37.036 8.08425 37.1534L7.64112 38.5339H8.68361ZM13.5324 39.9997C13.2351 40.1436 12.8469 40.2155 12.3678 40.2155C11.7429 40.2155 11.2515 40.0319 10.8936 39.6645C10.5357 39.2971 10.3567 38.8076 10.3567 38.1959C10.3567 37.5445 10.5574 37.0161 10.9589 36.6109C11.3623 36.2056 11.8849 36.003 12.5269 36.003C12.9246 36.003 13.2598 36.0532 13.5324 36.1535V37.037C13.2598 36.8741 12.9492 36.7927 12.6007 36.7927C12.2182 36.7927 11.9095 36.9129 11.6747 37.1534C11.4399 37.3939 11.3225 37.7196 11.3225 38.1306C11.3225 38.5245 11.4333 38.8388 11.6548 39.0736C11.8764 39.3066 12.1747 39.423 12.5496 39.423C12.9075 39.423 13.2351 39.3359 13.5324 39.1617V39.9997ZM15.8844 40.2155C15.3012 40.2155 14.8259 40.0262 14.4585 39.6474C14.0911 39.2668 13.9074 38.7716 13.9074 38.1618C13.9074 37.518 14.0939 36.9972 14.467 36.5995C14.8401 36.2018 15.3343 36.003 15.9498 36.003C16.5311 36.003 17.0008 36.1933 17.3587 36.5739C17.7185 36.9546 17.8984 37.4564 17.8984 38.0794C17.8984 38.7195 17.7119 39.2356 17.3388 39.6275C16.9676 40.0195 16.4828 40.2155 15.8844 40.2155ZM15.9242 36.7927C15.6023 36.7927 15.3466 36.9139 15.1573 37.1563C14.9679 37.3968 14.8732 37.7158 14.8732 38.1135C14.8732 38.5169 14.9679 38.836 15.1573 39.0708C15.3466 39.3056 15.5947 39.423 15.9015 39.423C16.2177 39.423 16.4686 39.3094 16.6542 39.0822C16.8398 38.853 16.9326 38.5358 16.9326 38.1306C16.9326 37.7083 16.8427 37.3797 16.6628 37.1449C16.4828 36.9101 16.2367 36.7927 15.9242 36.7927ZM23.1052 39.9997C22.8078 40.1436 22.4196 40.2155 21.9405 40.2155C21.3156 40.2155 20.8242 40.0319 20.4663 39.6645C20.1084 39.2971 19.9294 38.8076 19.9294 38.1959C19.9294 37.5445 20.1301 37.0161 20.5316 36.6109C20.935 36.2056 21.4576 36.003 22.0996 36.003C22.4973 36.003 22.8325 36.0532 23.1052 36.1535V37.037C22.8325 36.8741 22.5219 36.7927 22.1734 36.7927C21.7909 36.7927 21.4822 36.9129 21.2474 37.1534C21.0126 37.3939 20.8952 37.7196 20.8952 38.1306C20.8952 38.5245 21.006 38.8388 21.2275 39.0736C21.4491 39.3066 21.7474 39.423 22.1223 39.423C22.4802 39.423 22.8078 39.3359 23.1052 39.1617V39.9997ZM26.2582 40.1445H23.8153V36.0712H26.1644V36.8182H24.7328V37.7244H26.065V38.4686H24.7328V39.4003H26.2582V40.1445ZM30.5758 40.1445H29.6498L27.971 37.5852C27.8726 37.4356 27.8044 37.3229 27.7665 37.2472H27.7552C27.7703 37.3911 27.7779 37.6107 27.7779 37.9062V40.1445H26.9115V36.0712H27.9L29.5163 38.551C29.5902 38.6627 29.6583 38.7735 29.7208 38.8833H29.7322C29.717 38.7886 29.7095 38.6021 29.7095 38.3237V36.0712H30.5758V40.1445ZM34.368 36.8182H33.2062V40.1445H32.2859V36.8182H31.1297V36.0712H34.368V36.8182ZM37.3591 40.1445H34.9162V36.0712H37.2654V36.8182H35.8337V37.7244H37.1659V38.4686H35.8337V39.4003H37.3591V40.1445ZM41.4296 40.1445H40.3758L39.7423 39.0964C39.695 39.0168 39.6495 38.9458 39.606 38.8833C39.5624 38.8208 39.5179 38.7678 39.4725 38.7242C39.4289 38.6788 39.3825 38.6447 39.3333 38.622C39.286 38.5974 39.2339 38.5851 39.1771 38.5851H38.9299V40.1445H38.0124V36.0712H39.4668C40.4553 36.0712 40.9496 36.4404 40.9496 37.179C40.9496 37.321 40.9278 37.4526 40.8842 37.5738C40.8407 37.6931 40.7791 37.8011 40.6996 37.8976C40.6201 37.9942 40.5235 38.0775 40.4099 38.1476C40.2981 38.2177 40.1732 38.2726 40.0349 38.3124V38.3237C40.0955 38.3427 40.1542 38.3739 40.211 38.4175C40.2678 38.4591 40.3228 38.5084 40.3758 38.5652C40.4288 38.622 40.479 38.6835 40.5263 38.7498C40.5756 38.8142 40.6201 38.8776 40.6598 38.9401L41.4296 40.1445ZM38.9299 36.7586V37.892H39.3276C39.5246 37.892 39.6827 37.8352 39.802 37.7215C39.9232 37.606 39.9838 37.463 39.9838 37.2926C39.9838 36.9366 39.7707 36.7586 39.3447 36.7586H38.9299Z" fill="#13375D"/>
<path d="M6.87988 26.2686V3.69531H16.7475C19.1982 3.69531 21.348 4.16832 23.1968 5.11418C25.0457 6.06015 26.486 7.37154 27.5179 9.04844C28.5498 10.7253 29.0657 12.7031 29.0657 14.982C29.0657 17.2393 28.5498 19.2118 27.5179 20.8993C26.486 22.587 25.0457 23.9037 23.1968 24.8497C21.348 25.7957 19.1982 26.2686 16.7475 26.2686H6.87988V26.2686ZM11.3654 21.7883H16.554C19.3987 21.7883 21.5552 21.221 23.015 19.7728C24.0629 18.7333 24.8414 17.313 24.8414 14.982C24.8414 13.4125 24.3733 12.1704 23.6962 11.0203C23.2506 10.2635 22.1383 9.19262 20.7348 8.71859C19.2049 8.20187 17.4884 8.19723 16.554 8.19723H11.3655V21.7883H11.3654Z" fill="#13375D"/>
<path d="M28.7484 7.50348C30.7637 7.38921 32.3048 5.66282 32.1905 3.64746C32.0763 1.6321 30.3499 0.0909554 28.3346 0.205218C26.3193 0.319481 24.7782 2.04588 24.8924 4.06124C25.0067 6.0766 26.7331 7.61774 28.7484 7.50348Z" fill="#76B5F8"/>
<path d="M26.0716 32.5875C28.0869 32.4732 29.6281 30.7468 29.5138 28.7314C29.3995 26.7161 27.6732 25.1749 25.6578 25.2892C23.6425 25.4035 22.1014 27.1299 22.2157 29.1452C22.3299 31.1606 24.0563 32.7017 26.0716 32.5875Z" fill="#244E78"/>
<path fill-rule="evenodd" clip-rule="evenodd" d="M32.7973 26.4252C33.299 26.5798 33.775 26.6524 34.1777 26.6802C34.3517 26.6922 34.5117 26.6972 34.6893 26.7244C35.0037 26.7729 35.3256 26.8561 35.7081 27.0398C35.8387 27.1026 35.9779 27.1825 36.1248 27.28C37.8721 28.4764 38.0809 30.7682 37.0214 32.2481C36.4136 33.097 35.33 33.789 33.9729 33.6942C32.5665 33.5959 31.8066 32.9102 31.2798 32.1773C30.8113 31.5254 30.7164 30.882 30.665 30.2541C30.6093 29.0449 30.3491 28.2862 29.9352 27.4298C29.6821 26.952 29.418 26.5498 29.0287 26.1046C28.6096 25.636 28.2256 25.2959 27.5837 24.8768C26.8864 24.4478 26.2624 24.2108 25.6514 24.0642C25.3409 23.9921 25.0503 23.9416 24.7909 23.9167C24.0651 23.847 23.5885 23.7418 23.049 23.4335C22.3692 23.045 21.7451 22.4195 21.4281 21.4507C21.1476 20.5938 21.2207 19.6775 21.554 18.9404C21.9388 18.089 22.5747 17.5015 23.2409 17.1874C23.9456 16.855 24.4436 16.8507 24.8632 16.8066C25.3293 16.7575 25.7226 16.681 26.2621 16.5096C26.6638 16.3702 27.1568 16.1915 27.8629 15.7242C28.608 15.2004 29.3369 14.5797 30.0448 13.2677C30.4787 12.3052 30.6798 11.8886 30.8239 10.0945C30.8523 9.8119 30.9315 9.47503 31.0466 9.22012C31.5679 8.06625 32.5039 7.31361 33.6228 7.09384C34.1832 6.98381 34.7632 7.00847 35.3245 7.18168C35.9144 7.36369 36.4836 7.71108 36.9774 8.27696C37.5399 8.9214 37.7659 9.67489 37.8011 10.4224C37.8418 11.2873 37.5353 12.1195 36.9829 12.7924C36.5235 13.3519 35.7764 13.8268 35.0222 13.968C34.5075 14.0644 33.9875 14.0579 33.5576 14.1318C32.9899 14.2294 32.5306 14.3781 31.9789 14.6235C31.4435 14.8616 30.8608 15.234 30.2215 15.8328C30.0408 16.0075 29.7362 16.3312 29.484 16.6901C29.2253 17.0584 29.0075 17.4391 28.8772 17.7372C28.4852 18.6336 28.3861 19.1349 28.322 19.9175C28.311 20.0508 28.3091 20.1636 28.3062 20.2957C28.2875 21.3758 28.5441 22.3289 28.9716 23.1967C29.2394 23.7401 29.5815 24.2423 30.0114 24.6905C30.7321 25.4417 31.5798 26.0499 32.797 26.4252H32.7973Z" fill="url(#paint0_linear_558_1530)"/>
<defs>
<linearGradient id="paint0_linear_558_1530" x1="32.4705" y1="32.8702" x2="27.0373" y2="7.34889" gradientUnits="userSpaceOnUse">
<stop stop-color="#13375D"/>
<stop offset="0.254902" stop-color="#234C77"/>
<stop offset="0.45098" stop-color="#346291"/>
<stop offset="0.670588" stop-color="#558BC4"/>
<stop offset="1" stop-color="#76B5F8"/>
</linearGradient>
</defs>
</svg>
